# xmcd
#
# Track frame offsets: 
#        150
#        17216
#        33020
#        47832
#        64998
#        79021
#        99305
#        128867
#        145611
#        163239
#
# Disc length: 2445 seconds
#
# Revision: 0
# Processed by: cddbd v1.5.2PL0 Copyright (c) Steve Scherf et al.
# Submitted via: ExactAudioCopy v0.95a5
#
DISCID=7e098b0a
DTITLE=Tricia Walker - Velvet
DYEAR=2007
DGENRE=Country
TTITLE0=I Met An Angel
TTITLE1=I'll Do The Best With What I've Got
TTITLE2=We Fell In Love Anyway
TTITLE3=Eighth Wonder Of The World
TTITLE4=Distant Fire
TTITLE5=Take Me To Heart
TTITLE6=I Never Meant To Fall In Love Like This
TTITLE7=Empty Hearts
TTITLE8=He's Not You
TTITLE9=Me and New Orleans
EXTD=
EXTT0=
EXTT1=
EXTT2=
EXTT3=
EXTT4=
EXTT5=
EXTT6=
EXTT7=
EXTT8=
EXTT9=
PLAYORDER=
